<svg aria-roledescription="gitGraph" viewBox="-259.875 -19 1717.875 448.41656494140625" height="100%" xmlns="http://www.w3.org/2000/svg" width="1717.875" id="graph-div" style="max-width: 100%;" xmlns:xlink="http://www.w3.org/1999/xlink"><style>@import url("https://cdnjs.cloudflare.com/ajax/libs/font-awesome/6.2.1/css/all.min.css");'</style><style>#graph-div{font-family:"trebuchet ms",verdana,arial,sans-serif;font-size:16px;fill:#ccc;}#graph-div .error-icon{fill:#a44141;}#graph-div .error-text{fill:#ddd;stroke:#ddd;}#graph-div .edge-thickness-normal{stroke-width:2px;}#graph-div .edge-thickness-thick{stroke-width:3.5px;}#graph-div .edge-pattern-solid{stroke-dasharray:0;}#graph-div .edge-pattern-dashed{stroke-dasharray:3;}#graph-div .edge-pattern-dotted{stroke-dasharray:2;}#graph-div .marker{fill:lightgrey;stroke:lightgrey;}#graph-div .marker.cross{stroke:lightgrey;}#graph-div svg{font-family:"trebuchet ms",verdana,arial,sans-serif;font-size:16px;}#graph-div .commit-id,#graph-div .commit-msg,#graph-div .branch-label{fill:lightgrey;color:lightgrey;font-family:'trebuchet ms',verdana,arial,sans-serif;font-family:var(--mermaid-font-family);}#graph-div .branch-label0{fill:undefined;}#graph-div .commit0{stroke:hsl(180, 1.5873015873%, 48.3529411765%);fill:hsl(180, 1.5873015873%, 48.3529411765%);}#graph-div .commit-highlight0{stroke:rgb(133.6571428571, 129.7428571428, 129.7428571428);fill:rgb(133.6571428571, 129.7428571428, 129.7428571428);}#graph-div .label0{fill:hsl(180, 1.5873015873%, 48.3529411765%);}#graph-div .arrow0{stroke:hsl(180, 1.5873015873%, 48.3529411765%);}#graph-div .branch-label1{fill:undefined;}#graph-div .commit1{stroke:hsl(321.6393442623, 65.5913978495%, 38.2352941176%);fill:hsl(321.6393442623, 65.5913978495%, 38.2352941176%);}#graph-div .commit-highlight1{stroke:rgb(93.5483870969, 221.4516129033, 139.677419355);fill:rgb(93.5483870969, 221.4516129033, 139.677419355);}#graph-div .label1{fill:hsl(321.6393442623, 65.5913978495%, 38.2352941176%);}#graph-div .arrow1{stroke:hsl(321.6393442623, 65.5913978495%, 38.2352941176%);}#graph-div .branch-label2{fill:undefined;}#graph-div .commit2{stroke:hsl(194.4, 16.5562913907%, 49.6078431373%);fill:hsl(194.4, 16.5562913907%, 49.6078431373%);}#graph-div .commit-highlight2{stroke:rgb(149.4437086091, 117.6092715231, 107.5562913906);fill:rgb(149.4437086091, 117.6092715231, 107.5562913906);}#graph-div .label2{fill:hsl(194.4, 16.5562913907%, 49.6078431373%);}#graph-div .arrow2{stroke:hsl(194.4, 16.5562913907%, 49.6078431373%);}#graph-div .branch-label3{fill:undefined;}#graph-div .commit3{stroke:hsl(23.0769230769, 49.0566037736%, 40.7843137255%);fill:hsl(23.0769230769, 49.0566037736%, 40.7843137255%);}#graph-div .commit-highlight3{stroke:rgb(99.9811320754, 162.7735849057, 202.0188679245);fill:rgb(99.9811320754, 162.7735849057, 202.0188679245);}#graph-div .label3{fill:hsl(23.0769230769, 49.0566037736%, 40.7843137255%);}#graph-div .arrow3{stroke:hsl(23.0769230769, 49.0566037736%, 40.7843137255%);}#graph-div .branch-label4{fill:undefined;}#graph-div .commit4{stroke:hsl(0, 83.3333333333%, 43.5294117647%);fill:hsl(0, 83.3333333333%, 43.5294117647%);}#graph-div .commit-highlight4{stroke:rgb(51.5000000001, 236.5, 236.5);fill:rgb(51.5000000001, 236.5, 236.5);}#graph-div .label4{fill:hsl(0, 83.3333333333%, 43.5294117647%);}#graph-div .arrow4{stroke:hsl(0, 83.3333333333%, 43.5294117647%);}#graph-div .branch-label5{fill:undefined;}#graph-div .commit5{stroke:hsl(289.1666666667, 100%, 24.1176470588%);fill:hsl(289.1666666667, 100%, 24.1176470588%);}#graph-div .commit-highlight5{stroke:rgb(154.2083333334, 255, 132.0000000001);fill:rgb(154.2083333334, 255, 132.0000000001);}#graph-div .label5{fill:hsl(289.1666666667, 100%, 24.1176470588%);}#graph-div .arrow5{stroke:hsl(289.1666666667, 100%, 24.1176470588%);}#graph-div .branch-label6{fill:undefined;}#graph-div .commit6{stroke:hsl(35.1315789474, 98.7012987013%, 40.1960784314%);fill:hsl(35.1315789474, 98.7012987013%, 40.1960784314%);}#graph-div .commit-highlight6{stroke:rgb(51.331168831, 135.1948051946, 253.6688311688);fill:rgb(51.331168831, 135.1948051946, 253.6688311688);}#graph-div .label6{fill:hsl(35.1315789474, 98.7012987013%, 40.1960784314%);}#graph-div .arrow6{stroke:hsl(35.1315789474, 98.7012987013%, 40.1960784314%);}#graph-div .branch-label7{fill:undefined;}#graph-div .commit7{stroke:hsl(106.1538461538, 84.4155844156%, 35.0980392157%);fill:hsl(106.1538461538, 84.4155844156%, 35.0980392157%);}#graph-div .commit-highlight7{stroke:rgb(206.1818181817, 89.948051948, 241.051948052);fill:rgb(206.1818181817, 89.948051948, 241.051948052);}#graph-div .label7{fill:hsl(106.1538461538, 84.4155844156%, 35.0980392157%);}#graph-div .arrow7{stroke:hsl(106.1538461538, 84.4155844156%, 35.0980392157%);}#graph-div .branch{stroke-width:1;stroke:lightgrey;stroke-dasharray:2;}#graph-div .commit-label{font-size:10px;fill:rgb(183.8476190475, 181.5523809523, 181.5523809523);}#graph-div .commit-label-bkg{font-size:10px;fill:hsl(180, 1.5873015873%, 28.3529411765%);opacity:0.5;}#graph-div .tag-label{font-size:10px;fill:#e0dfdf;}#graph-div .tag-label-bkg{fill:#1f2020;stroke:#cccccc;}#graph-div .tag-hole{fill:#ccc;}#graph-div .commit-merge{stroke:#1f2020;fill:#1f2020;}#graph-div .commit-reverse{stroke:#1f2020;fill:#1f2020;stroke-width:3;}#graph-div .commit-highlight-inner{stroke:#1f2020;fill:#1f2020;}#graph-div .arrow{stroke-width:8;stroke-linecap:round;fill:none;}#graph-div .gitTitleText{text-anchor:middle;font-size:18px;fill:#ccc;}:root{--mermaid-font-family:"trebuchet ms",verdana,arial,sans-serif;}</style><g></g><g class="commit-bullets"></g><g class="commit-labels"></g><g><line class="branch branch0" y2="0" x2="1450" y1="0" x1="0"></line><rect transform="translate(-19, -9.5)" height="23" width="208.921875" y="-1.5" x="-224.921875" ry="4" rx="4" class="branchLabelBkg label0"></rect><g class="branchLabel"><g transform="translate(-234.921875, -10.5)" class="label branch-label0"><text><tspan class="row" x="0" dy="1em" xml:space="preserve">Digital Book System (6502)</tspan></text></g></g><line class="branch branch1" y2="90" x2="1450" y1="90" x1="0"></line><rect transform="translate(-19, 80.5)" height="23" width="146.078125" y="-1.5" x="-162.078125" ry="4" rx="4" class="branchLabelBkg label1"></rect><g class="branchLabel"><g transform="translate(-172.078125, 79.5)" class="label branch-label1"><text><tspan class="row" x="0" dy="1em" xml:space="preserve">Bookman 1 (6502)</tspan></text></g></g><line class="branch branch2" y2="180" x2="1450" y1="180" x1="0"></line><rect transform="translate(-19, 170.5)" height="23" width="57.828125" y="-1.5" x="-73.828125" ry="4" rx="4" class="branchLabelBkg label2"></rect><g class="branchLabel"><g transform="translate(-83.828125, 169.5)" class="label branch-label2"><text><tspan class="row" x="0" dy="1em" xml:space="preserve">BKMN</tspan></text></g></g><line class="branch branch3" y2="270" x2="1450" y1="270" x1="0"></line><rect transform="translate(-19, 260.5)" height="23" width="189.25" y="-1.5" x="-205.25" ry="4" rx="4" class="branchLabelBkg label3"></rect><g class="branchLabel"><g transform="translate(-215.25, 259.5)" class="label branch-label3"><text><tspan class="row" x="0" dy="1em" xml:space="preserve">Bookman 2 (ES1, SNK8?)</tspan></text></g></g><line class="branch branch4" y2="360" x2="1450" y1="360" x1="0"></line><rect transform="translate(-19, 350.5)" height="23" width="216.875" y="-1.5" x="-232.875" ry="4" rx="4" class="branchLabelBkg label4"></rect><g class="branchLabel"><g transform="translate(-242.875, 349.5)" class="label branch-label4"><text><tspan class="row" x="0" dy="1em" xml:space="preserve">Bookman 3 (SNK24, SNK32?)</tspan></text></g></g></g><g class="commit-arrows"><path class="arrow arrow1" d="M 560 90 L 560 90  560 90 L 610 90"></path><path class="arrow arrow1" d="M 610 90 L 610 90  610 90 L 660 90"></path><path class="arrow arrow1" d="M 110 90 L 110 90  110 90 L 210 90"></path><path class="arrow arrow1" d="M 710 90 L 710 90  710 90 L 760 90"></path><path class="arrow arrow4" d="M 1010 270 L 1010 340 A 20 20, 0, 0, 0, 1030 360 L 1060 360"></path><path class="arrow arrow1" d="M 260 90 L 260 90  260 90 L 510 90"></path><path class="arrow arrow3" d="M 810 90 L 810 250 A 20 20, 0, 0, 0, 830 270 L 860 270"></path><path class="arrow arrow4" d="M 1060 360 L 1060 360  1060 360 L 1110 360"></path><path class="arrow arrow4" d="M 1110 360 L 1110 360  1110 360 L 1160 360"></path><path class="arrow arrow1" d="M 210 90 L 210 90  210 90 L 260 90"></path><path class="arrow arrow4" d="M 1160 360 L 1160 360  1160 360 L 1210 360"></path><path class="arrow arrow4" d="M 1210 360 L 1210 360  1210 360 L 1260 360"></path><path class="arrow arrow1" d="M 760 90 L 760 90  760 90 L 810 90"></path><path class="arrow arrow3" d="M 910 270 L 910 270  910 270 L 960 270"></path><path class="arrow arrow4" d="M 1260 360 L 1260 360  1260 360 L 1310 360"></path><path class="arrow arrow4" d="M 1310 360 L 1310 360  1310 360 L 1360 360"></path><path class="arrow arrow0" d="M 10 0 L 10 0  10 0 L 60 0"></path><path class="arrow arrow1" d="M 60 0 L 60 70 A 20 20, 0, 0, 0, 80 90 L 110 90"></path><path class="arrow arrow0" d="M 60 0 L 60 0  60 0 L 160 0"></path><path class="arrow arrow2" d="M 260 90 L 260 160 A 20 20, 0, 0, 0, 280 180 L 310 180"></path><path class="arrow arrow2" d="M 310 180 L 310 180  310 180 L 360 180"></path><path class="arrow arrow2" d="M 360 180 L 360 180  360 180 L 410 180"></path><path class="arrow arrow2" d="M 410 180 L 410 180  410 180 L 460 180"></path><path class="arrow arrow1" d="M 510 90 L 510 90  510 90 L 560 90"></path><path class="arrow arrow1" d="M 660 90 L 660 90  660 90 L 710 90"></path><path class="arrow arrow3" d="M 860 270 L 860 270  860 270 L 910 270"></path><path class="arrow arrow3" d="M 960 270 L 960 270  960 270 L 1010 270"></path><path class="arrow arrow4" d="M 1360 360 L 1360 360  1360 360 L 1410 360"></path></g><g class="commit-bullets"><circle class="commit DBS-1 commit0" r="10" cy="0" cx="10"></circle><circle class="commit DBS-2 commit0" r="10" cy="0" cx="60"></circle><circle class="commit 440 / 445 commit1" r="10" cy="90" cx="110"></circle><circle class="commit DBS-2D commit0" r="10" cy="0" cx="160"></circle><circle class="commit 640 commit1" r="10" cy="90" cx="210"></circle><circle class="commit 1640 commit1" r="10" cy="90" cx="260"></circle><rect class="commit WP-230B commit-highlight2 commit-highlight-outer" width="20" height="20" y="170" x="300"></rect><rect class="commit WP-230B commit2 commit-highlight-inner" width="12" height="12" y="174" x="304"></rect><circle class="commit WP-335B commit2" r="10" cy="180" cx="360"></circle><rect class="commit PN-8700MDS commit-highlight2 commit-highlight-outer" width="20" height="20" y="170" x="400"></rect><rect class="commit PN-8700MDS commit2 commit-highlight-inner" width="12" height="12" y="174" x="404"></rect><circle class="commit PN-8800FXB commit2" r="10" cy="180" cx="460"></circle><circle class="commit 840 commit1" r="10" cy="90" cx="510"></circle><circle class="commit 561, 563, 565 commit1" r="10" cy="90" cx="560"></circle><circle class="commit 560 commit1" r="10" cy="90" cx="610"></circle><circle class="commit 580 commit1" r="10" cy="90" cx="660"></circle><circle class="commit 761, 763, 765 commit1" r="10" cy="90" cx="710"></circle><circle class="commit 770 commit1" r="10" cy="90" cx="760"></circle><rect class="commit 1770 commit-highlight1 commit-highlight-outer" width="20" height="20" y="80" x="800"></rect><rect class="commit 1770 commit1 commit-highlight-inner" width="12" height="12" y="84" x="804"></rect><circle class="commit 1440 commit3" r="10" cy="270" cx="860"></circle><circle class="commit 590, 1590, 1595 commit3" r="10" cy="270" cx="910"></circle><circle class="commit 1840 commit3" r="10" cy="270" cx="960"></circle><rect class="commit BW-10 commit-highlight3 commit-highlight-outer" width="20" height="20" y="260" x="1000"></rect><rect class="commit BW-10 commit3 commit-highlight-inner" width="12" height="12" y="264" x="1004"></rect><circle class="commit 787 commit4" r="10" cy="360" cx="1060"></circle><circle class="commit 1450 commit4" r="10" cy="360" cx="1110"></circle><circle class="commit 1470 commit4" r="10" cy="360" cx="1160"></circle><circle class="commit 1660 commit4" r="10" cy="360" cx="1210"></circle><circle class="commit 1680 commit4" r="10" cy="360" cx="1260"></circle><circle class="commit 1850 commit4" r="10" cy="360" cx="1310"></circle><circle class="commit 1860 commit4" r="10" cy="360" cx="1360"></circle><circle class="commit 1870 / 1875 commit4" r="10" cy="360" cx="1410"></circle></g><g class="commit-labels"><g transform="translate(-21.001875, 18.680625) rotate(-45, 0, 0)"><rect height="15" width="29.53125" y="13.5" x="-4.765625" class="commit-label-bkg"></rect><text class="commit-label" y="25" x="-2.765625">DBS-1</text></g><g transform="translate(-21.001875, 18.680625) rotate(-45, 50, 0)"><rect height="15" width="29.53125" y="13.5" x="45.234375" class="commit-label-bkg"></rect><text class="commit-label" y="25" x="47.234375">DBS-2</text></g><g transform="translate(-27.5390625, 24.5296875) rotate(-45, 100, 90)"><rect height="15" width="46.734375" y="103.5" x="86.6328125" class="commit-label-bkg"></rect><text class="commit-label" y="115" x="88.6328125">440 / 445</text></g><g transform="translate(-23.329375, 20.763125000000002) rotate(-45, 150, 0)"><rect height="15" width="35.65625" y="13.5" x="142.171875" class="commit-label-bkg"></rect><text class="commit-label" y="25" x="144.171875">DBS-2D</text></g><g transform="translate(-17.2790625, 15.3496875) rotate(-45, 200, 90)"><rect height="15" width="19.734375" y="103.5" x="200.1328125" class="commit-label-bkg"></rect><text class="commit-label" y="115" x="202.1328125">640</text></g><g transform="translate(-19.2740625, 17.1346875) rotate(-45, 250, 90)"><rect height="15" width="24.984375" y="103.5" x="247.5078125" class="commit-label-bkg"></rect><text class="commit-label" y="115" x="249.5078125">1640</text></g><g transform="translate(-26.1853125, 23.3184375) rotate(-45, 300, 180)"><rect height="15" width="43.171875" y="193.5" x="288.4140625" class="commit-label-bkg"></rect><text class="commit-label" y="205" x="290.4140625">WP-230B</text></g><polygon points="271.921875,162.8
          271.921875,158.8
          279.921875,153.274609375
          340.078125,153.274609375
          340.078125,168.325390625
          279.921875,168.325390625" class="tag-label-bkg"></polygon><circle class="tag-hole" r="1.5" cy="160.8" cx="275.921875"></circle><text x="283.921875" class="tag-label" y="164">Typewriters</text><g transform="translate(-26.1853125, 23.3184375) rotate(-45, 350, 180)"><rect height="15" width="43.171875" y="193.5" x="338.4140625" class="commit-label-bkg"></rect><text class="commit-label" y="205" x="340.4140625">WP-335B</text></g><g transform="translate(-32.069375, 28.583125) rotate(-45, 400, 180)"><rect height="15" width="58.65625" y="193.5" x="380.671875" class="commit-label-bkg"></rect><text class="commit-label" y="205" x="382.671875">PN-8700MDS</text></g><polygon points="361.96875,162.8
          361.96875,158.8
          369.96875,153.3
          450.03125,153.3
          450.03125,168.3
          369.96875,168.3" class="tag-label-bkg"></polygon><circle class="tag-hole" r="1.5" cy="160.8" cx="365.96875"></circle><text x="373.96875" class="tag-label" y="164">Word Processors</text><g transform="translate(-31.475625, 28.051875) rotate(-45, 450, 180)"><rect height="15" width="57.09375" y="193.5" x="431.453125" class="commit-label-bkg"></rect><text class="commit-label" y="205" x="433.453125">PN-8800FXB</text></g><g transform="translate(-17.2790625, 15.3496875) rotate(-45, 500, 90)"><rect height="15" width="19.734375" y="103.5" x="500.1328125" class="commit-label-bkg"></rect><text class="commit-label" y="115" x="502.1328125">840</text></g><g transform="translate(-34.3196875, 30.5965625) rotate(-45, 550, 90)"><rect height="15" width="64.578125" y="103.5" x="527.7109375" class="commit-label-bkg"></rect><text class="commit-label" y="115" x="529.7109375">561, 563, 565</text></g><g transform="translate(-17.2790625, 15.3496875) rotate(-45, 600, 90)"><rect height="15" width="19.734375" y="103.5" x="600.1328125" class="commit-label-bkg"></rect><text class="commit-label" y="115" x="602.1328125">560</text></g><g transform="translate(-17.2790625, 15.3496875) rotate(-45, 650, 90)"><rect height="15" width="19.734375" y="103.5" x="650.1328125" class="commit-label-bkg"></rect><text class="commit-label" y="115" x="652.1328125">580</text></g><g transform="translate(-34.3196875, 30.5965625) rotate(-45, 700, 90)"><rect height="15" width="64.578125" y="103.5" x="677.7109375" class="commit-label-bkg"></rect><text class="commit-label" y="115" x="679.7109375">761, 763, 765</text></g><g transform="translate(-17.2790625, 15.3496875) rotate(-45, 750, 90)"><rect height="15" width="19.734375" y="103.5" x="750.1328125" class="commit-label-bkg"></rect><text class="commit-label" y="115" x="752.1328125">770</text></g><g transform="translate(-19.2740625, 17.1346875) rotate(-45, 800, 90)"><rect height="15" width="24.984375" y="103.5" x="797.5078125" class="commit-label-bkg"></rect><text class="commit-label" y="115" x="799.5078125">1770</text></g><polygon points="751.4453125,72.8
          751.4453125,68.8
          759.4453125,63.274609375
          860.5546875,63.274609375
          860.5546875,78.325390625
          759.4453125,78.325390625" class="tag-label-bkg"></polygon><circle class="tag-hole" r="1.5" cy="70.8" cx="755.4453125"></circle><text x="763.4453125" class="tag-label" y="74">Medical Book System</text><g transform="translate(-19.2740625, 17.1346875) rotate(-45, 850, 270)"><rect height="15" width="24.984375" y="283.5" x="847.5078125" class="commit-label-bkg"></rect><text class="commit-label" y="295" x="849.5078125">1440</text></g><g transform="translate(-38.30375, 34.161249999999995) rotate(-45, 900, 270)"><rect height="15" width="75.0625" y="283.5" x="872.46875" class="commit-label-bkg"></rect><text class="commit-label" y="295" x="874.46875">590, 1590, 1595</text></g><g transform="translate(-19.2740625, 17.1346875) rotate(-45, 950, 270)"><rect height="15" width="24.984375" y="283.5" x="947.5078125" class="commit-label-bkg"></rect><text class="commit-label" y="295" x="949.5078125">1840</text></g><g transform="translate(-21.809375000000003, 19.403125) rotate(-45, 1000, 270)"><rect height="15" width="31.65625" y="283.5" x="994.171875" class="commit-label-bkg"></rect><text class="commit-label" y="295" x="996.171875">BW-10</text></g><polygon points="962.234375,252.8
          962.234375,248.8
          970.234375,243.3
          1049.765625,243.3
          1049.765625,258.3
          970.234375,258.3" class="tag-label-bkg"></polygon><circle class="tag-hole" r="1.5" cy="250.8" cx="966.234375"></circle><text x="974.234375" class="tag-label" y="254">Bookman Writer</text><g transform="translate(-17.2790625, 15.3496875) rotate(-45, 1050, 360)"><rect height="15" width="19.734375" y="373.5" x="1050.1328125" class="commit-label-bkg"></rect><text class="commit-label" y="385" x="1052.1328125">787</text></g><polygon points="1019.34375,342.8
          1019.34375,338.8
          1027.34375,333.274609375
          1092.65625,333.274609375
          1092.65625,348.325390625
          1027.34375,348.325390625" class="tag-label-bkg"></polygon><circle class="tag-hole" r="1.5" cy="340.8" cx="1023.34375"></circle><text x="1031.34375" class="tag-label" y="344">Desktop only</text><g transform="translate(-19.2740625, 17.1346875) rotate(-45, 1100, 360)"><rect height="15" width="24.984375" y="373.5" x="1097.5078125" class="commit-label-bkg"></rect><text class="commit-label" y="385" x="1099.5078125">1450</text></g><g transform="translate(-19.2740625, 17.1346875) rotate(-45, 1150, 360)"><rect height="15" width="24.984375" y="373.5" x="1147.5078125" class="commit-label-bkg"></rect><text class="commit-label" y="385" x="1149.5078125">1470</text></g><g transform="translate(-19.2740625, 17.1346875) rotate(-45, 1200, 360)"><rect height="15" width="24.984375" y="373.5" x="1197.5078125" class="commit-label-bkg"></rect><text class="commit-label" y="385" x="1199.5078125">1660</text></g><g transform="translate(-19.2740625, 17.1346875) rotate(-45, 1250, 360)"><rect height="15" width="24.984375" y="373.5" x="1247.5078125" class="commit-label-bkg"></rect><text class="commit-label" y="385" x="1249.5078125">1680</text></g><g transform="translate(-19.2740625, 17.1346875) rotate(-45, 1300, 360)"><rect height="15" width="24.984375" y="373.5" x="1297.5078125" class="commit-label-bkg"></rect><text class="commit-label" y="385" x="1299.5078125">1850</text></g><g transform="translate(-19.2740625, 17.1346875) rotate(-45, 1350, 360)"><rect height="15" width="24.984375" y="373.5" x="1347.5078125" class="commit-label-bkg"></rect><text class="commit-label" y="385" x="1349.5078125">1860</text></g><g transform="translate(-31.5290625, 28.0996875) rotate(-45, 1400, 360)"><rect height="15" width="57.234375" y="373.5" x="1381.3828125" class="commit-label-bkg"></rect><text class="commit-label" y="385" x="1383.3828125">1870 / 1875</text></g></g></svg>